<?xml version="1.0"?>
<svg xmlns="http://www.w3.org/2000/svg" xmlns:xlink="http://www.w3.org/1999/xlink" id="lp-icons" data-name="lp-icons" viewBox="0 0 600 240"><defs><symbol id="icon-linkedin-square" data-name="icon-linkedin-square" viewBox="0 0 27 32"><path xmlns="http://www.w3.org/2000/svg" class="path1" d="M4.232 25.25h4.125V12.857H4.232V25.25zM8.625 9.036q-.018-.929-.643-1.536t-1.661-.607-1.688.607-.652 1.536q0 .911.634 1.527t1.652.616h.018q1.054 0 1.696-.616t.643-1.527zM19.071 25.25h4.125v-7.107q0-2.75-1.304-4.161t-3.446-1.411q-2.429 0-3.732 2.089h.036v-1.804h-4.125q.054 1.179 0 12.393h4.125V18.32q0-.679.125-1 .268-.625.804-1.063T17 15.819q2.071 0 2.071 2.804v6.625zm8.358-17.821v17.143q0 2.125-1.509 3.634t-3.634 1.509H5.143q-2.125 0-3.634-1.509T0 24.572V7.429q0-2.125 1.509-3.634t3.634-1.509h17.143q2.125 0 3.634 1.509t1.509 3.634z"/></symbol><symbol id="icon-github-alt" data-name="icon-github-alt" viewBox="0 0 30 32"><path xmlns="http://www.w3.org/2000/svg" class="path1" d="M11.429 21.714q0 .714-.223 1.464t-.768 1.357-1.295.607-1.295-.607-.768-1.357-.223-1.464.223-1.464.768-1.357 1.295-.607 1.295.607.768 1.357.223 1.464zm11.428 0q0 .714-.223 1.464t-.768 1.357-1.295.607-1.295-.607-.768-1.357-.223-1.464.223-1.464.768-1.357 1.295-.607 1.295.607.768 1.357.223 1.464zm2.857 0q0-2.143-1.232-3.643t-3.339-1.5q-.732 0-3.482.375-1.268.196-2.804.196t-2.804-.196q-2.714-.375-3.482-.375-2.107 0-3.339 1.5T4 21.714q0 1.571.571 2.741t1.446 1.839 2.179 1.071 2.5.527 2.661.125h3q1.464 0 2.661-.125t2.5-.527 2.179-1.071 1.446-1.839.571-2.741zm4-3.143q0 3.696-1.089 5.911-.679 1.375-1.884 2.375t-2.518 1.536-3.036.848-3.063.393-2.982.08q-1.393 0-2.536-.054t-2.634-.223-2.723-.536-2.446-.92-2.161-1.446-1.536-2.054Q-.001 22.285-.001 18.57q0-4.232 2.429-7.071-.482-1.464-.482-3.036 0-2.071.911-3.893 1.929 0 3.393.705T9.625 7.48q2.625-.625 5.518-.625 2.643 0 5 .571 1.875-1.464 3.339-2.161t3.375-.696q.911 1.821.911 3.893 0 1.554-.482 3 2.429 2.857 2.429 7.107z"/></symbol><symbol id="icon-instagram" data-name="icon-instagram" viewBox="0 0 27 32"><path xmlns="http://www.w3.org/2000/svg" class="path1" d="M18.286 16q0-1.893-1.339-3.232t-3.232-1.339-3.232 1.339T9.144 16t1.339 3.232 3.232 1.339 3.232-1.339T18.286 16zm2.464 0q0 2.929-2.054 4.982t-4.982 2.054-4.982-2.054T6.678 16t2.054-4.982 4.982-2.054 4.982 2.054T20.75 16zm1.929-7.321q0 .679-.482 1.161t-1.161.482-1.161-.482-.482-1.161.482-1.161 1.161-.482 1.161.482.482 1.161zM13.714 4.75l-1.366-.009q-1.241-.009-1.884 0t-1.723.054-1.839.179-1.277.33q-.893.357-1.571 1.036T3.018 7.911q-.196.518-.33 1.277t-.179 1.839-.054 1.723 0 1.884T2.464 16t-.009 1.366 0 1.884.054 1.723.179 1.839.33 1.277q.357.893 1.036 1.571t1.571 1.036q.518.196 1.277.33t1.839.179 1.723.054 1.884 0 1.366-.009 1.366.009 1.884 0 1.723-.054 1.839-.179 1.277-.33q.893-.357 1.571-1.036t1.036-1.571q.196-.518.33-1.277t.179-1.839.054-1.723 0-1.884T24.964 16t.009-1.366 0-1.884-.054-1.723-.179-1.839-.33-1.277q-.357-.893-1.036-1.571t-1.571-1.036q-.518-.196-1.277-.33t-1.839-.179-1.723-.054-1.884 0-1.366.009zM27.429 16q0 4.089-.089 5.661-.179 3.714-2.214 5.75t-5.75 2.214q-1.571.089-5.661.089t-5.661-.089q-3.714-.179-5.75-2.214T.09 21.661Q.001 20.09.001 16t.089-5.661q.179-3.714 2.214-5.75t5.75-2.214q1.571-.089 5.661-.089t5.661.089q3.714.179 5.75 2.214t2.214 5.75q.089 1.571.089 5.661z"/></symbol><symbol id="icon-stack-exchange" data-name="icon-stack-exchange" viewBox="0 0 23 32"><path xmlns="http://www.w3.org/2000/svg" class="path1" d="M22.482 22.375v1.179q0 1.518-1.027 2.58t-2.473 1.063h-1.018l-4.643 4.804v-4.804H3.875q-1.446 0-2.473-1.063t-1.027-2.58v-1.179h22.107zm0-5.821v4.554H.375v-4.554h22.107zm0-5.858v4.554H.375v-4.554h22.107zm0-2.5v1.196H.375V8.196q0-1.5 1.027-2.563T3.875 4.57h15.107q1.446 0 2.473 1.063t1.027 2.563z"/></symbol><symbol id="icon-strava" data-name="icon-strava" viewBox="0 0 32 32"><path xmlns="http://www.w3.org/2000/svg" d="M20.516 23.925l-2.785-5.488h-4.087L20.516 32l6.867-13.563h-4.088zm-6.565-12.953l3.781 7.464h5.563L13.951 0 4.618 18.437h5.559z"/></symbol></defs></svg>