<svg style="position: absolute; width: 0; height: 0; overflow: hidden;" version="1.1" xmlns="http://www.w3.org/2000/svg" xmlns:xlink="http://www.w3.org/1999/xlink">
<defs>
<symbol id="icon-linkedin-square" viewBox="0 0 27 32">
<title>linkedin-square</title>
<path class="path1" d="M4.232 25.25h4.125v-12.393h-4.125v12.393zM8.625 9.036q-0.018-0.929-0.643-1.536t-1.661-0.607-1.688 0.607-0.652 1.536q0 0.911 0.634 1.527t1.652 0.616h0.018q1.054 0 1.696-0.616t0.643-1.527zM19.071 25.25h4.125v-7.107q0-2.75-1.304-4.161t-3.446-1.411q-2.429 0-3.732 2.089h0.036v-1.804h-4.125q0.054 1.179 0 12.393h4.125v-6.929q0-0.679 0.125-1 0.268-0.625 0.804-1.063t1.321-0.438q2.071 0 2.071 2.804v6.625zM27.429 7.429v17.143q0 2.125-1.509 3.634t-3.634 1.509h-17.143q-2.125 0-3.634-1.509t-1.509-3.634v-17.143q0-2.125 1.509-3.634t3.634-1.509h17.143q2.125 0 3.634 1.509t1.509 3.634z"></path>
</symbol>
<symbol id="icon-github-alt" viewBox="0 0 30 32">
<title>github-alt</title>
<path class="path1" d="M11.429 21.714q0 0.714-0.223 1.464t-0.768 1.357-1.295 0.607-1.295-0.607-0.768-1.357-0.223-1.464 0.223-1.464 0.768-1.357 1.295-0.607 1.295 0.607 0.768 1.357 0.223 1.464zM22.857 21.714q0 0.714-0.223 1.464t-0.768 1.357-1.295 0.607-1.295-0.607-0.768-1.357-0.223-1.464 0.223-1.464 0.768-1.357 1.295-0.607 1.295 0.607 0.768 1.357 0.223 1.464zM25.714 21.714q0-2.143-1.232-3.643t-3.339-1.5q-0.732 0-3.482 0.375-1.268 0.196-2.804 0.196t-2.804-0.196q-2.714-0.375-3.482-0.375-2.107 0-3.339 1.5t-1.232 3.643q0 1.571 0.571 2.741t1.446 1.839 2.179 1.071 2.5 0.527 2.661 0.125h3q1.464 0 2.661-0.125t2.5-0.527 2.179-1.071 1.446-1.839 0.571-2.741zM29.714 18.571q0 3.696-1.089 5.911-0.679 1.375-1.884 2.375t-2.518 1.536-3.036 0.848-3.063 0.393-2.982 0.080q-1.393 0-2.536-0.054t-2.634-0.223-2.723-0.536-2.446-0.92-2.161-1.446-1.536-2.054q-1.107-2.196-1.107-5.911 0-4.232 2.429-7.071-0.482-1.464-0.482-3.036 0-2.071 0.911-3.893 1.929 0 3.393 0.705t3.375 2.205q2.625-0.625 5.518-0.625 2.643 0 5 0.571 1.875-1.464 3.339-2.161t3.375-0.696q0.911 1.821 0.911 3.893 0 1.554-0.482 3 2.429 2.857 2.429 7.107z"></path>
</symbol>
<symbol id="icon-instagram" viewBox="0 0 27 32">
<title>instagram</title>
<path class="path1" d="M18.286 16q0-1.893-1.339-3.232t-3.232-1.339-3.232 1.339-1.339 3.232 1.339 3.232 3.232 1.339 3.232-1.339 1.339-3.232zM20.75 16q0 2.929-2.054 4.982t-4.982 2.054-4.982-2.054-2.054-4.982 2.054-4.982 4.982-2.054 4.982 2.054 2.054 4.982zM22.679 8.679q0 0.679-0.482 1.161t-1.161 0.482-1.161-0.482-0.482-1.161 0.482-1.161 1.161-0.482 1.161 0.482 0.482 1.161zM13.714 4.75q-0.125 0-1.366-0.009t-1.884 0-1.723 0.054-1.839 0.179-1.277 0.33q-0.893 0.357-1.571 1.036t-1.036 1.571q-0.196 0.518-0.33 1.277t-0.179 1.839-0.054 1.723 0 1.884 0.009 1.366-0.009 1.366 0 1.884 0.054 1.723 0.179 1.839 0.33 1.277q0.357 0.893 1.036 1.571t1.571 1.036q0.518 0.196 1.277 0.33t1.839 0.179 1.723 0.054 1.884 0 1.366-0.009 1.366 0.009 1.884 0 1.723-0.054 1.839-0.179 1.277-0.33q0.893-0.357 1.571-1.036t1.036-1.571q0.196-0.518 0.33-1.277t0.179-1.839 0.054-1.723 0-1.884-0.009-1.366 0.009-1.366 0-1.884-0.054-1.723-0.179-1.839-0.33-1.277q-0.357-0.893-1.036-1.571t-1.571-1.036q-0.518-0.196-1.277-0.33t-1.839-0.179-1.723-0.054-1.884 0-1.366 0.009zM27.429 16q0 4.089-0.089 5.661-0.179 3.714-2.214 5.75t-5.75 2.214q-1.571 0.089-5.661 0.089t-5.661-0.089q-3.714-0.179-5.75-2.214t-2.214-5.75q-0.089-1.571-0.089-5.661t0.089-5.661q0.179-3.714 2.214-5.75t5.75-2.214q1.571-0.089 5.661-0.089t5.661 0.089q3.714 0.179 5.75 2.214t2.214 5.75q0.089 1.571 0.089 5.661z"></path>
</symbol>
<symbol id="icon-stack-exchange" viewBox="0 0 23 32">
<title>stack-exchange</title>
<path class="path1" d="M22.482 22.375v1.179q0 1.518-1.027 2.58t-2.473 1.063h-1.018l-4.643 4.804v-4.804h-9.446q-1.446 0-2.473-1.063t-1.027-2.58v-1.179h22.107zM22.482 16.554v4.554h-22.107v-4.554h22.107zM22.482 10.696v4.554h-22.107v-4.554h22.107zM22.482 8.196v1.196h-22.107v-1.196q0-1.5 1.027-2.563t2.473-1.063h15.107q1.446 0 2.473 1.063t1.027 2.563z"></path>
</symbol>
</defs>
</svg>
